<svg id="visual" viewBox="0 0 960 540" width="960" height="540" xmlns="http://www.w3.org/2000/svg" xmlns:xlink="http://www.w3.org/1999/xlink" version="1.1"><path d="M0 416L6.2 424C12.3 432 24.7 448 37 443.7C49.3 439.3 61.7 414.7 74 406.2C86.3 397.7 98.7 405.3 111 408.7C123.3 412 135.7 411 148 420.2C160.3 429.3 172.7 448.7 185 455.5C197.3 462.3 209.7 456.7 221.8 447.2C234 437.7 246 424.3 258.2 424.2C270.3 424 282.7 437 295 443.3C307.3 449.7 319.7 449.3 332 448.5C344.3 447.7 356.7 446.3 369 438.2C381.3 430 393.7 415 406 409.5C418.3 404 430.7 408 443 410.2C455.3 412.3 467.7 412.7 480 421.8C492.3 431 504.7 449 517 457.5C529.3 466 541.7 465 554 457.3C566.3 449.7 578.7 435.3 591 424.2C603.3 413 615.7 405 628 402.3C640.3 399.7 652.7 402.3 665 410.7C677.3 419 689.7 433 701.8 434C714 435 726 423 738.2 416.8C750.3 410.7 762.7 410.3 775 407.2C787.3 404 799.7 398 812 405.8C824.3 413.7 836.7 435.3 849 436C861.3 436.7 873.7 416.3 886 413.7C898.3 411 910.7 426 923 436.2C935.3 446.3 947.7 451.7 953.8 454.3L960 457L960 541L953.8 541C947.7 541 935.3 541 923 541C910.7 541 898.3 541 886 541C873.7 541 861.3 541 849 541C836.7 541 824.3 541 812 541C799.7 541 787.3 541 775 541C762.7 541 750.3 541 738.2 541C726 541 714 541 701.8 541C689.7 541 677.3 541 665 541C652.7 541 640.3 541 628 541C615.7 541 603.3 541 591 541C578.7 541 566.3 541 554 541C541.7 541 529.3 541 517 541C504.7 541 492.3 541 480 541C467.7 541 455.3 541 443 541C430.7 541 418.3 541 406 541C393.7 541 381.3 541 369 541C356.7 541 344.3 541 332 541C319.7 541 307.3 541 295 541C282.7 541 270.3 541 258.2 541C246 541 234 541 221.8 541C209.7 541 197.3 541 185 541C172.7 541 160.3 541 148 541C135.7 541 123.3 541 111 541C98.7 541 86.3 541 74 541C61.7 541 49.3 541 37 541C24.7 541 12.3 541 6.2 541L0 541Z" fill="#e8e8e8" stroke-linecap="round" stroke-linejoin="miter"></path></svg>