<svg id="visual" viewBox="0 0 960 540" width="960" height="540" xmlns="http://www.w3.org/2000/svg" xmlns:xlink="http://www.w3.org/1999/xlink" version="1.1"><rect x="0" y="0" width="960" height="540" fill="#4a4a4a"></rect><path d="M0 31L6.2 28.5C12.3 26 24.7 21 37 20C49.3 19 61.7 22 74 22.7C86.3 23.3 98.7 21.7 111 22.8C123.3 24 135.7 28 148 29.8C160.3 31.7 172.7 31.3 185 29.2C197.3 27 209.7 23 221.8 20.5C234 18 246 17 258.2 19.5C270.3 22 282.7 28 295 28.3C307.3 28.7 319.7 23.3 332 22.3C344.3 21.3 356.7 24.7 369 26.8C381.3 29 393.7 30 406 31C418.3 32 430.7 33 443 30.5C455.3 28 467.7 22 480 19.3C492.3 16.7 504.7 17.3 517 18.5C529.3 19.7 541.7 21.3 554 22.3C566.3 23.3 578.7 23.7 591 24.5C603.3 25.3 615.7 26.7 628 28.2C640.3 29.7 652.7 31.3 665 29.7C677.3 28 689.7 23 701.8 23C714 23 726 28 738.2 28.8C750.3 29.7 762.7 26.3 775 24.3C787.3 22.3 799.7 21.7 812 21.5C824.3 21.3 836.7 21.7 849 21.2C861.3 20.7 873.7 19.3 886 19C898.3 18.7 910.7 19.3 923 19.3C935.3 19.3 947.7 18.7 953.8 18.3L960 18L960 0L953.8 0C947.7 0 935.3 0 923 0C910.7 0 898.3 0 886 0C873.7 0 861.3 0 849 0C836.7 0 824.3 0 812 0C799.7 0 787.3 0 775 0C762.7 0 750.3 0 738.2 0C726 0 714 0 701.8 0C689.7 0 677.3 0 665 0C652.7 0 640.3 0 628 0C615.7 0 603.3 0 591 0C578.7 0 566.3 0 554 0C541.7 0 529.3 0 517 0C504.7 0 492.3 0 480 0C467.7 0 455.3 0 443 0C430.7 0 418.3 0 406 0C393.7 0 381.3 0 369 0C356.7 0 344.3 0 332 0C319.7 0 307.3 0 295 0C282.7 0 270.3 0 258.2 0C246 0 234 0 221.8 0C209.7 0 197.3 0 185 0C172.7 0 160.3 0 148 0C135.7 0 123.3 0 111 0C98.7 0 86.3 0 74 0C61.7 0 49.3 0 37 0C24.7 0 12.3 0 6.2 0L0 0Z" fill="#e8e8e8" stroke-linecap="round" stroke-linejoin="miter"></path></svg>