<?xml version="1.0" encoding="utf-8"?>
<svg id="visual" viewBox="0 0 960 540" width="960" height="540" xmlns="http://www.w3.org/2000/svg" version="1.1">
  <rect y="0" width="960" height="540" fill="#4a4a4a" x="0"/>
  <path d="M 0 29 L 6.2 26.5 C 12.3 24 24.7 19 37 18 C 49.3 17 61.7 20 74 20.7 C 86.3 21.3 98.7 19.7 111 20.8 C 123.3 22 135.7 26 148 27.8 C 160.3 29.7 172.7 29.3 185 27.2 C 197.3 25 209.7 21 221.8 18.5 C 234 16 246 15 258.2 17.5 C 270.3 20 282.7 26 295 26.3 C 307.3 26.7 319.7 21.3 332 20.3 C 344.3 19.3 356.7 22.7 369 24.8 C 381.3 27 393.7 28 406 29 C 418.3 30 430.7 31 443 28.5 C 455.3 26 467.7 20 480 17.3 C 492.3 14.7 504.7 15.3 517 16.5 C 529.3 17.7 541.7 19.3 554 20.3 C 566.3 21.3 578.7 21.7 591 22.5 C 603.3 23.3 615.7 24.7 628 26.2 C 640.3 27.7 652.7 29.3 665 27.7 C 677.3 26 689.7 21 701.8 21 C 714 21 726 26 738.2 26.8 C 750.3 27.7 762.7 24.3 775 22.3 C 787.3 20.3 799.7 19.7 812 19.5 C 824.3 19.3 836.7 19.7 849 19.2 C 861.3 18.7 873.7 17.3 886 17 C 898.3 16.7 910.7 17.3 923 17.3 C 935.3 17.3 947.7 16.7 953.8 16.3 L 960 16 L 960 -2 L 953.8 -2 C 947.7 -2 935.3 -2 923 -2 C 910.7 -2 898.3 -2 886 -2 C 873.7 -2 861.3 -2 849 -2 C 836.7 -2 824.3 -2 812 -2 C 799.7 -2 787.3 -2 775 -2 C 762.7 -2 750.3 -2 738.2 -2 C 726 -2 714 -2 701.8 -2 C 689.7 -2 677.3 -2 665 -2 C 652.7 -2 640.3 -2 628 -2 C 615.7 -2 603.3 -2 591 -2 C 578.7 -2 566.3 -2 554 -2 C 541.7 -2 529.3 -2 517 -2 C 504.7 -2 492.3 -2 480 -2 C 467.7 -2 455.3 -2 443 -2 C 430.7 -2 418.3 -2 406 -2 C 393.7 -2 381.3 -2 369 -2 C 356.7 -2 344.3 -2 332 -2 C 319.7 -2 307.3 -2 295 -2 C 282.7 -2 270.3 -2 258.2 -2 C 246 -2 234 -2 221.8 -2 C 209.7 -2 197.3 -2 185 -2 C 172.7 -2 160.3 -2 148 -2 C 135.7 -2 123.3 -2 111 -2 C 98.7 -2 86.3 -2 74 -2 C 61.7 -2 49.3 -2 37 -2 C 24.7 -2 12.3 -2 6.2 -2 L 0 -2 L 0 29 Z" fill="#e8e8e8" stroke-linecap="round" stroke-linejoin="miter"/>
</svg>